<?xml version="1.0"?>
<!-- Generated by SVGo -->
<svg width="128" height="128"
     xmlns="http://www.w3.org/2000/svg"
     xmlns:xlink="http://www.w3.org/1999/xlink">
<circle cx="4" cy="84" r="1" style="fill:#c7aeac;stroke:none" />
<circle cx="4" cy="92" r="1" style="fill:#b18f8b;stroke:none" />
<circle cx="4" cy="100" r="1" style="fill:#a67e7c;stroke:none" />
<circle cx="4" cy="108" r="1" style="fill:#c2a8a4;stroke:none" />
<circle cx="12" cy="52" r="1" style="fill:#c2a8a6;stroke:none" />
<circle cx="12" cy="60" r="2" style="fill:#8c5449;stroke:none" />
<circle cx="12" cy="68" r="3" style="fill:#691c0a;stroke:none" />
<circle cx="12" cy="76" r="3" style="fill:#661400;stroke:none" />
<circle cx="12" cy="84" r="3" style="fill:#681600;stroke:none" />
<circle cx="12" cy="92" r="3" style="fill:#661400;stroke:none" />
<circle cx="12" cy="100" r="3" style="fill:#610f00;stroke:none" />
<circle cx="12" cy="108" r="3" style="fill:#590900;stroke:none" />
<circle cx="12" cy="116" r="1" style="fill:#af8b88;stroke:none" />
<circle cx="20" cy="36" r="1" style="fill:#b4928e;stroke:none" />
<circle cx="20" cy="44" r="3" style="fill:#732b19;stroke:none" />
<circle cx="20" cy="52" r="3" style="fill:#711e00;stroke:none" />
<circle cx="20" cy="60" r="3" style="fill:#742100;stroke:none" />
<circle cx="20" cy="68" r="3" style="fill:#721e00;stroke:none" />
<circle cx="20" cy="76" r="3" style="fill:#6f1b00;stroke:none" />
<circle cx="20" cy="84" r="3" style="fill:#6b1800;stroke:none" />
<circle cx="20" cy="92" r="3" style="fill:#661400;stroke:none" />
<circle cx="20" cy="100" r="3" style="fill:#610f00;stroke:none" />
<circle cx="20" cy="108" r="3" style="fill:#5b0a00;stroke:none" />
<circle cx="20" cy="116" r="3" style="fill:#641e19;stroke:none" />
<circle cx="28" cy="28" r="2" style="fill:#7a3829;stroke:none" />
<circle cx="28" cy="36" r="3" style="fill:#752100;stroke:none" />
<circle cx="28" cy="44" r="3" style="fill:#782400;stroke:none" />
<circle cx="28" cy="52" r="3" style="fill:#762200;stroke:none" />
<circle cx="28" cy="60" r="3" style="fill:#742100;stroke:none" />
<circle cx="28" cy="68" r="3" style="fill:#721e00;stroke:none" />
<circle cx="28" cy="76" r="3" style="fill:#6f1b00;stroke:none" />
<circle cx="28" cy="84" r="3" style="fill:#6b1800;stroke:none" />
<circle cx="28" cy="92" r="3" style="fill:#651300;stroke:none" />
<circle cx="28" cy="100" r="3" style="fill:#5f0e00;stroke:none" />
<circle cx="28" cy="108" r="3" style="fill:#5b0a00;stroke:none" />
<circle cx="28" cy="116" r="3" style="fill:#530400;stroke:none" />
<circle cx="36" cy="20" r="3" style="fill:#742c1a;stroke:none" />
<circle cx="36" cy="28" r="3" style="fill:#731f00;stroke:none" />
<circle cx="36" cy="36" r="3" style="fill:#782400;stroke:none" />
<circle cx="36" cy="44" r="3" style="fill:#762300;stroke:none" />
<circle cx="36" cy="52" r="3" style="fill:#6f1c00;stroke:none" />
<circle cx="36" cy="60" r="3" style="fill:#6d1b00;stroke:none" />
<circle cx="36" cy="68" r="3" style="fill:#6d1a00;stroke:none" />
<circle cx="36" cy="76" r="3" style="fill:#661500;stroke:none" />
<circle cx="36" cy="84" r="3" style="fill:#5c0c00;stroke:none" />
<circle cx="36" cy="92" r="3" style="fill:#5c0c00;stroke:none" />
<circle cx="36" cy="100" r="3" style="fill:#5b0b00;stroke:none" />
<circle cx="36" cy="108" r="3" style="fill:#5a0900;stroke:none" />
<circle cx="36" cy="116" r="3" style="fill:#550500;stroke:none" />
<circle cx="36" cy="124" r="1" style="fill:#cbb5b3;stroke:none" />
<circle cx="44" cy="12" r="2" style="fill:#8a5146;stroke:none" />
<circle cx="44" cy="20" r="3" style="fill:#792400;stroke:none" />
<circle cx="44" cy="28" r="3" style="fill:#742000;stroke:none" />
<circle cx="44" cy="36" r="3" style="fill:#641708;stroke:none" />
<circle cx="44" cy="44" r="1" style="fill:#ad8883;stroke:none" />
<circle cx="44" cy="52" r="0" style="fill:#d3c0bd;stroke:none" />
<circle cx="44" cy="60" r="0" style="fill:#d6c4c1;stroke:none" />
<circle cx="44" cy="68" r="1" style="fill:#cdb7b6;stroke:none" />
<circle cx="44" cy="76" r="0" style="fill:#d7c6c2;stroke:none" />
<circle cx="44" cy="84" r="3" style="fill:#601101;stroke:none" />
<circle cx="44" cy="92" r="3" style="fill:#661400;stroke:none" />
<circle cx="44" cy="100" r="3" style="fill:#610f00;stroke:none" />
<circle cx="44" cy="108" r="3" style="fill:#5b0a00;stroke:none" />
<circle cx="44" cy="116" r="3" style="fill:#560600;stroke:none" />
<circle cx="44" cy="124" r="1" style="fill:#b89a99;stroke:none" />
<circle cx="52" cy="12" r="3" style="fill:#6f1c00;stroke:none" />
<circle cx="52" cy="20" r="3" style="fill:#6e1b00;stroke:none" />
<circle cx="52" cy="28" r="3" style="fill:#6d1a00;stroke:none" />
<circle cx="52" cy="36" r="2" style="fill:#7b3624;stroke:none" />
<circle cx="52" cy="76" r="1" style="fill:#ceb9b6;stroke:none" />
<circle cx="52" cy="84" r="3" style="fill:#641200;stroke:none" />
<circle cx="52" cy="92" r="3" style="fill:#5e1000;stroke:none" />
<circle cx="52" cy="100" r="3" style="fill:#600f00;stroke:none" />
<circle cx="52" cy="108" r="3" style="fill:#5b0a00;stroke:none" />
<circle cx="52" cy="116" r="3" style="fill:#560600;stroke:none" />
<circle cx="52" cy="124" r="1" style="fill:#ad8985;stroke:none" />
<circle cx="60" cy="4" r="1" style="fill:#ac8783;stroke:none" />
<circle cx="60" cy="12" r="3" style="fill:#792400;stroke:none" />
<circle cx="60" cy="20" r="3" style="fill:#681600;stroke:none" />
<circle cx="60" cy="28" r="3" style="fill:#661500;stroke:none" />
<circle cx="60" cy="36" r="3" style="fill:#6d2008;stroke:none" />
<circle cx="60" cy="76" r="3" style="fill:#6a1e0f;stroke:none" />
<circle cx="60" cy="84" r="3" style="fill:#6b1800;stroke:none" />
<circle cx="60" cy="92" r="3" style="fill:#621200;stroke:none" />
<circle cx="60" cy="100" r="3" style="fill:#4e0700;stroke:none" />
<circle cx="60" cy="108" r="3" style="fill:#570900;stroke:none" />
<circle cx="60" cy="116" r="3" style="fill:#560600;stroke:none" />
<circle cx="60" cy="124" r="1" style="fill:#a7807f;stroke:none" />
<circle cx="68" cy="4" r="1" style="fill:#cfb9b6;stroke:none" />
<circle cx="68" cy="12" r="3" style="fill:#6f210b;stroke:none" />
<circle cx="68" cy="20" r="3" style="fill:#792400;stroke:none" />
<circle cx="68" cy="28" r="3" style="fill:#681905;stroke:none" />
<circle cx="68" cy="36" r="2" style="fill:#9e7067;stroke:none" />
<circle cx="68" cy="68" r="2" style="fill:#895147;stroke:none" />
<circle cx="68" cy="76" r="3" style="fill:#6e1b00;stroke:none" />
<circle cx="68" cy="84" r="3" style="fill:#6b1800;stroke:none" />
<circle cx="68" cy="92" r="3" style="fill:#661400;stroke:none" />
<circle cx="68" cy="100" r="3" style="fill:#610f00;stroke:none" />
<circle cx="68" cy="108" r="3" style="fill:#4c0500;stroke:none" />
<circle cx="68" cy="116" r="3" style="fill:#560600;stroke:none" />
<circle cx="68" cy="124" r="1" style="fill:#a7807f;stroke:none" />
<circle cx="76" cy="20" r="2" style="fill:#a2766f;stroke:none" />
<circle cx="76" cy="28" r="1" style="fill:#ba9b97;stroke:none" />
<circle cx="76" cy="68" r="3" style="fill:#661500;stroke:none" />
<circle cx="76" cy="76" r="3" style="fill:#6f1b00;stroke:none" />
<circle cx="76" cy="84" r="3" style="fill:#6b1800;stroke:none" />
<circle cx="76" cy="92" r="3" style="fill:#661400;stroke:none" />
<circle cx="76" cy="100" r="3" style="fill:#610f00;stroke:none" />
<circle cx="76" cy="108" r="3" style="fill:#4f0600;stroke:none" />
<circle cx="76" cy="116" r="3" style="fill:#550500;stroke:none" />
<circle cx="76" cy="124" r="1" style="fill:#a7807f;stroke:none" />
<circle cx="84" cy="60" r="0" style="fill:#d1bdbc;stroke:none" />
<circle cx="84" cy="68" r="3" style="fill:#6c1900;stroke:none" />
<circle cx="84" cy="76" r="3" style="fill:#6f1b00;stroke:none" />
<circle cx="84" cy="84" r="3" style="fill:#6b1800;stroke:none" />
<circle cx="84" cy="92" r="3" style="fill:#661400;stroke:none" />
<circle cx="84" cy="100" r="3" style="fill:#610f00;stroke:none" />
<circle cx="84" cy="108" r="3" style="fill:#500700;stroke:none" />
<circle cx="84" cy="116" r="3" style="fill:#550500;stroke:none" />
<circle cx="84" cy="124" r="1" style="fill:#a7807f;stroke:none" />
<circle cx="92" cy="68" r="3" style="fill:#691700;stroke:none" />
<circle cx="92" cy="76" r="3" style="fill:#6f1b00;stroke:none" />
<circle cx="92" cy="84" r="3" style="fill:#6b1800;stroke:none" />
<circle cx="92" cy="92" r="3" style="fill:#661400;stroke:none" />
<circle cx="92" cy="100" r="3" style="fill:#610f00;stroke:none" />
<circle cx="92" cy="108" r="3" style="fill:#4e0600;stroke:none" />
<circle cx="92" cy="116" r="3" style="fill:#560600;stroke:none" />
<circle cx="92" cy="124" r="1" style="fill:#ad8987;stroke:none" />
<circle cx="100" cy="68" r="3" style="fill:#6c2212;stroke:none" />
<circle cx="100" cy="76" r="3" style="fill:#6f1b00;stroke:none" />
<circle cx="100" cy="84" r="3" style="fill:#6b1800;stroke:none" />
<circle cx="100" cy="92" r="3" style="fill:#661400;stroke:none" />
<circle cx="100" cy="100" r="3" style="fill:#5e0e00;stroke:none" />
<circle cx="100" cy="108" r="3" style="fill:#4d0500;stroke:none" />
<circle cx="100" cy="116" r="3" style="fill:#550500;stroke:none" />
<circle cx="100" cy="124" r="0" style="fill:#d0bcba;stroke:none" />
<circle cx="108" cy="68" r="1" style="fill:#af8b86;stroke:none" />
<circle cx="108" cy="76" r="3" style="fill:#6b1800;stroke:none" />
<circle cx="108" cy="84" r="3" style="fill:#6b1800;stroke:none" />
<circle cx="108" cy="92" r="3" style="fill:#661400;stroke:none" />
<circle cx="108" cy="100" r="3" style="fill:#560b00;stroke:none" />
<circle cx="108" cy="108" r="3" style="fill:#5b0a00;stroke:none" />
<circle cx="108" cy="116" r="3" style="fill:#6e2d29;stroke:none" />
<circle cx="116" cy="76" r="2" style="fill:#986962;stroke:none" />
<circle cx="116" cy="84" r="3" style="fill:#631200;stroke:none" />
<circle cx="116" cy="92" r="3" style="fill:#661400;stroke:none" />
<circle cx="116" cy="100" r="3" style="fill:#5e0d00;stroke:none" />
<circle cx="116" cy="108" r="3" style="fill:#6d2a23;stroke:none" />
<circle cx="124" cy="92" r="1" style="fill:#b89a99;stroke:none" />
<circle cx="124" cy="100" r="1" style="fill:#ceb9b7;stroke:none" />
</svg>
