<svg xmlns="http://www.w3.org/2000/svg" version="1.2" baseProfile="tiny" width="128" height="128"><path fill="#965f3b" d="M12 64h1v1h-1z"/><g fill="#915b3a"><path d="M35 83h1v1h-1zM42 83h1v1h-1zM100 103h1v1h-1zM106 103h1v1h-1zM8 106h1v1H8zM115 106h1v1h-1zM9 107h53v1H9zM62 107h1v1h-1zM72 107h19v1H72zM91 107h1v1h-1zM102 107h12v1h-12zM114 107h1v1h-1z"/></g><g fill="#98603d"><path d="M119 90h1v1h-1zM8 93h22v1H8zM30 93h1v1h-1zM35 93h17v1H35zM52 93h1v1h-1zM58 93h61v1H58zM119 93h1v1h-1z"/></g><g fill="#804f32"><path d="M102 106h1v1h-1zM79 109h5v1h-5zM84 109h1v1h-1z"/></g><path fill="#a26a41" d="M39 44h1v1h-1z"/><g fill="#915b39"><path d="M91 65h1v1h-1zM38 74h1v1h-1zM8 85h1v1H8zM8 86h1v1H8zM119 96h1v1h-1z"/></g><g fill="#8f5939"><path d="M53 93h1v1h-1zM55 98h1v1h-1zM97 105h1v1h-1zM33 106h1v1h-1zM69 106h1v1h-1zM76 108h1v1h-1zM114 108h1v1h-1zM113 109h1v1h-1zM112 110h1v1h-1zM12 111h58v1H12zM70 111h1v1h-1zM93 111h18v1H93zM111 111h1v1h-1z"/></g><g fill="#8e5838"><path d="M119 97h1v1h-1zM34 101h1v1h-1zM104 105h1v1h-1zM116 105h1v1h-1zM68 110h1v1h-1zM15 113h93v1H15zM108 113h1v1h-1z"/></g><g fill="#8d5838"><path d="M31 103h1v1h-1zM99 104h1v1h-1zM95 106h1v1h-1zM63 107h1v1h-1zM92 107h1v1h-1zM98 109h1v1h-1z"/></g><g fill="#865335"><path d="M89 108h1v1h-1zM69 110h1v1h-1zM72 111h1v1h-1z"/></g><g fill="#96603c"><path d="M59 7h1v1h-1zM50 10h1v1h-1zM48 11h1v1h-1zM43 14h1v1h-1zM70 15h1v1h-1zM57 21h1v1h-1zM61 21h1v1h-1zM62 21h1v1h-1zM56 26h1v1h-1zM63 28h3v1h-3zM66 28h1v1h-1zM41 29h1v1h-1zM27 30h1v1h-1zM61 31h1v1h-1zM42 35h1v1h-1zM52 35h1v1h-1zM59 36h1v1h-1zM60 36h1v1h-1zM23 37h1v1h-1zM15 55h1v1h-1z"/></g><path fill="#945d3a" d="M103 69h1v1h-1z"/><g fill="#7c4c30"><path d="M54 94h1v1h-1zM57 95h1v1h-1zM58 97h1v1h-1zM57 100h1v1h-1zM104 100h1v1h-1zM61 101h1v1h-1zM62 102h1v1h-1zM63 103h1v1h-1zM105 103h1v1h-1zM104 104h1v1h-1zM103 105h1v1h-1z"/></g><g fill="#8e5938"><path d="M18 47h1v1h-1zM39 47h1v1h-1zM62 73h1v1h-1zM119 87h1v1h-1zM31 93h1v1h-1zM34 94h1v1h-1zM31 104h1v1h-1z"/></g><g fill="#8a5536"><path d="M112 75h1v1h-1zM31 95h1v1h-1zM119 98h1v1h-1zM34 103h1v1h-1zM9 109h1v1H9zM10 110h1v1h-1zM11 111h1v1h-1zM14 113h1v1h-1zM108 114h1v1h-1zM22 116h1v1h-1zM26 117h1v1h-1zM32 118h1v1h-1zM100 118h1v1h-1zM39 119h1v1h-1zM40 119h1v1h-1zM97 119h1v1h-1zM51 120h3v1h-3zM54 120h1v1h-1zM90 120h1v1h-1zM91 120h1v1h-1z"/></g><g fill="#955e3c"><path d="M8 87h1v1H8zM119 89h1v1h-1zM8 99h22v1H8zM30 99h1v1h-1zM35 99h20v1H35zM55 99h1v1h-1zM61 99h42v1H61zM103 99h1v1h-1zM108 99h9v1h-9zM117 99h1v1h-1z"/></g><g fill="#a56c43"><path d="M63 7h1v10h-1z"/><path d="M57 8h8v9h-8zM65 8h1v19h-1z"/><path d="M54 9h11v8H54z"/><path d="M52 10h14v7H52zM66 10h1v17h-1z"/><path d="M50 11h17v6H50zM67 11h1v16h-1z"/><path d="M48 12h19v5H48z"/><path d="M46 13h22v4H46zM68 13h1v14h-1z"/><path d="M44 14h24v3H44z"/><path d="M43 15h26v2H43zM69 15h1v12h-1z"/><path d="M42 16h28v1H42zM70 16h1v10h-1zM40 17h30v1H40zM39 18h15v1H39zM54 18h1v1h-1z"/><path d="M64 18h7v8h-7zM71 18h1v8h-1zM38 19h14v3H38zM52 19h1v1h-1z"/><path d="M37 20h14v5H37zM72 20h1v5h-1z"/><path d="M36 21h15v4H36z"/><path d="M35 22h16v3H35zM51 22h1v1h-1zM56 22h16v3H56z"/><path d="M34 23h16v2H34z"/><path d="M33 24h17v1H33zM32 25h18v1H32zM50 25h1v9h-1zM56 25h16v1H56zM72 25h1v1h-1zM31 26h6v10h-6zM37 26h1v10h-1z"/><path d="M40 26h11v1H40zM51 26h1v8h-1zM57 26h14v1H57zM71 26h1v1h-1zM30 27h7v9h-7zM41 27h10v1H41zM60 27h9v1h-9zM69 27h1v1h-1z"/><path d="M29 28h8v8h-8zM42 28h10v1H42zM52 28h1v6h-1z"/><path d="M42 29h11v1H42zM53 29h1v5h-1zM28 30h9v6h-9z"/><path d="M43 30h12v1H43zM55 30h1v5h-1zM27 31h10v5H27z"/><path d="M44 31h14v1H44zM58 31h1v4h-1zM38 32h1v4h-1z"/><path d="M45 32h20v1H45zM65 32h1v2h-1zM26 33h13v3H26zM39 33h1v3h-1z"/><path d="M46 33h20v1H46zM66 33h1v1h-1zM49 34h16v1H49zM65 34h1v1h-1zM25 35h16v1H25zM41 35h1v1h-1zM55 35h8v1h-8zM63 35h1v1h-1zM25 36h17v1H25zM42 36h1v1h-1z"/></g><path fill="#945e3a" d="M39 46h1v1h-1z"/><g fill="#98613c"><path d="M39 17h1v1h-1zM58 27h1v1h-1zM60 31h1v1h-1zM67 70h1v1h-1zM114 78h1v1h-1z"/></g><path fill="#814f32" d="M73 111h1v1h-1z"/><path fill="#885536" d="M58 96h1v1h-1z"/><g fill="#8e5839"><path d="M100 108h1v1h-1zM110 112h1v1h-1z"/></g><g fill="#895535"><path d="M57 7h1v1h-1zM51 9h1v1h-1zM49 10h1v1h-1zM47 11h1v1h-1zM70 14h1v1h-1zM37 18h1v1h-1zM36 19h1v1h-1zM53 20h1v1h-1zM52 22h1v1h-1zM31 24h1v1h-1zM30 25h1v1h-1zM60 28h1v1h-1zM41 30h1v1h-1zM66 31h1v1h-1zM67 32h1v1h-1zM43 35h1v1h-1zM23 36h1v1h-1zM22 38h1v1h-1zM42 39h1v1h-1zM21 40h1v1h-1zM41 41h1v1h-1zM20 42h1v1h-1z"/></g><g fill="#9b643e"><path d="M42 38h1v1h-1zM39 45h1v1h-1zM38 62h1v1h-1z"/></g><g fill="#915a3a"><path d="M10 108h54v1H10zM64 108h1v1h-1zM77 108h9v1h-9zM86 108h1v1h-1zM101 108h12v1h-12zM113 108h1v1h-1z"/></g><path fill="#885436" d="M84 112h1v1h-1z"/><g fill="#8c5736"><path d="M92 65h1v1h-1zM72 67h1v1h-1zM107 71h1v1h-1z"/></g><g fill="#935d3a"><path d="M10 73h1v1h-1zM35 91h1v1h-1zM119 95h1v1h-1zM59 97h1v1h-1zM56 100h1v1h-1z"/></g><g fill="#9e663f"><path d="M61 7h1v1h-1zM72 19h1v1h-1zM58 21h1v1h-1zM59 21h1v1h-1zM51 24h1v1h-1zM73 24h1v1h-1zM39 26h1v1h-1zM52 27h1v1h-1zM59 31h1v1h-1zM26 32h1v1h-1zM45 33h1v1h-1zM53 35h1v1h-1zM11 70h1v1h-1zM104 70h1v1h-1zM66 71h1v1h-1z"/></g><g fill="#955e3b"><path d="M38 57h1v2h-1zM38 59h1v1h-1zM118 85h1v1h-1zM7 100h23v1H7zM30 100h1v1h-1zM35 100h20v1H35zM55 100h1v1h-1zM62 100h40v1H62zM102 100h1v1h-1zM108 100h9v1h-9zM117 100h1v1h-1z"/></g><g fill="#a26941"><path d="M14 60h23v1H14zM37 60h1v1h-1z"/></g><g fill="#8a5637"><path d="M107 101h1v1h-1zM71 107h1v1h-1z"/></g><g fill="#7d4d30"><path d="M78 109h1v1h-1zM93 110h1v1h-1zM74 111h1v1h-1z"/></g><g fill="#a26a42"><path d="M23 38h1v1h-1zM41 39h1v1h-1zM22 40h1v1h-1zM40 41h1v1h-1zM21 42h1v1h-1zM16 55h21v2H16zM37 55h1v2h-1zM15 57h22v1H15zM37 57h1v1h-1z"/></g><g fill="#875435"><path d="M57 94h1v1h-1zM58 102h1v1h-1zM65 104h1v1h-1zM93 107h1v1h-1zM101 107h1v1h-1zM91 111h1v1h-1z"/></g><g fill="#925b3a"><path d="M119 88h1v1h-1zM7 98h1v1H7zM34 98h1v1h-1zM34 99h1v1h-1zM8 105h22v1H8zM30 105h1v1h-1zM35 105h25v1H35zM60 105h1v1h-1zM68 105h28v1H68zM96 105h1v1h-1zM105 105h10v1h-10zM115 105h1v1h-1zM9 106h22v1H9zM31 106h1v1h-1zM34 106h27v1H34zM61 106h1v1h-1zM70 106h24v1H70zM94 106h1v1h-1zM104 106h10v1h-10zM114 106h1v1h-1z"/></g><path fill="#8b5837" d="M54 90h1v1h-1z"/><g fill="#97603c"><path d="M38 52h1v1h-1zM89 65h1v1h-1zM76 66h1v1h-1zM73 67h1v1h-1zM98 67h1v1h-1zM10 74h1v1h-1zM9 80h1v1H9zM48 82h3v1h-3zM51 82h1v1h-1zM40 84h1v1h-1zM38 85h1v1h-1zM53 90h1v1h-1zM56 90h1v1h-1zM35 92h1v1h-1z"/></g><g fill="#a06741"><path d="M12 69h26v1H12zM38 69h1v1h-1zM70 69h31v1H70zM101 69h1v1h-1z"/></g><g fill="#9b643f"><path d="M10 75h1v1h-1zM112 76h1v1h-1z"/></g><g fill="#815032"><path d="M55 97h1v1h-1zM103 101h1v1h-1zM70 107h1v1h-1zM73 108h1v1h-1zM90 108h1v1h-1z"/></g><g fill="#8b5637"><path d="M75 108h1v1h-1zM88 108h1v1h-1zM92 111h1v1h-1zM19 115h1v1h-1zM27 117h1v1h-1zM33 118h1v1h-1zM41 119h1v1h-1zM96 119h1v1h-1zM55 120h1v1h-1z"/></g><g fill="#955f3b"><path d="M17 50h1v1h-1zM38 53h1v3h-1zM38 56h1v1h-1z"/></g><g fill="#9a623e"><path d="M71 68h1v1h-1zM110 74h1v1h-1zM111 75h1v1h-1zM59 76h1v1h-1zM9 87h23v1H9zM32 87h1v1h-1zM38 87h80v1H38zM118 87h1v1h-1zM9 88h22v1H9zM31 88h1v1h-1zM37 88h81v1H37zM118 88h1v1h-1z"/></g><g fill="#955f3c"><path d="M33 86h1v1h-1zM58 95h1v1h-1z"/></g><g fill="#825133"><path d="M56 99h1v1h-1zM99 108h1v1h-1z"/></g><g fill="#965e3c"><path d="M8 98h22v1H8zM30 98h1v1h-1zM35 98h19v1H35zM54 98h1v1h-1zM60 98h44v1H60zM104 98h1v1h-1zM108 98h10v1h-10zM118 98h1v1h-1z"/></g><path fill="#935d3b" d="M103 100h1v1h-1z"/><g fill="#9c643f"><path d="M38 50h1v1h-1zM38 51h1v1h-1zM16 53h1v1h-1zM12 65h1v1h-1zM58 77h1v1h-1zM10 81h25v2H10zM35 81h1v1h-1zM55 81h60v2H55zM115 81h1v2h-1z"/><path d="M9 82h26v1H9zM35 82h1v1h-1zM52 82h64v1H52zM116 82h1v1h-1zM9 83h25v1H9zM34 83h1v1h-1zM44 83h72v1H44zM116 83h1v1h-1z"/></g><g fill="#7a4b2f"><path d="M54 91h1v2h-1zM55 91h1v5h-1z"/><path d="M54 93h2v1h-2zM56 93h1v5h-1z"/><path d="M55 96h2v1h-2zM57 96h1v3h-1z"/><path d="M56 98h2v1h-2zM58 98h1v3h-1zM106 98h1v3h-1z"/><path d="M57 99h2v1h-2zM59 99h1v3h-1zM105 99h2v2h-2zM107 99h1v1h-1zM60 100h1v3h-1z"/><path d="M58 101h2v1h-2zM104 101h2v1h-2zM106 101h1v1h-1zM59 102h2v1h-2zM61 102h1v2h-1zM103 102h2v1h-2zM105 102h1v1h-1z"/><path d="M60 103h2v1h-2zM62 103h1v2h-1zM102 103h2v1h-2zM104 103h1v1h-1z"/><path d="M61 104h3v1h-3zM64 104h1v2h-1zM101 104h2v1h-2zM103 104h1v1h-1z"/><path d="M62 105h3v1h-3zM65 105h1v2h-1zM99 105h3v1h-3zM102 105h1v1h-1z"/><path d="M64 106h3v1h-3zM67 106h1v2h-1zM97 106h4v1h-4zM101 106h1v1h-1z"/><path d="M65 107h4v1h-4zM69 107h1v2h-1zM95 107h4v1h-4zM99 107h1v1h-1z"/><path d="M67 108h4v1h-4zM71 108h1v2h-1zM92 108h6v1h-6zM98 108h1v1h-1z"/><path d="M69 109h8v1h-8zM77 109h1v2h-1zM85 109h10v1H85zM95 109h1v1h-1z"/><path d="M71 110h21v1H71zM92 110h1v1h-1zM75 111h13v1H75zM88 111h1v1h-1z"/></g><g fill="#7b4c30"><path d="M63 106h1v1h-1zM100 107h1v1h-1zM66 108h1v1h-1zM72 108h1v1h-1zM91 108h1v1h-1zM68 109h1v1h-1zM96 109h1v1h-1z"/></g><g fill="#8f5839"><path d="M14 112h61v1H14zM75 112h1v1h-1zM88 112h21v1H88zM109 112h1v1h-1z"/></g><path fill="#9a643e" d="M18 48h1v1h-1z"/><g fill="#945d3b"><path d="M11 68h1v1h-1zM8 101h22v1H8zM30 101h1v1h-1zM35 101h21v1H35zM56 101h1v1h-1zM63 101h39v1H63zM102 101h1v1h-1zM108 101h9v1h-9zM117 101h1v1h-1zM8 102h22v1H8zM30 102h1v1h-1zM35 102h22v1H35zM57 102h1v1h-1zM64 102h37v1H64zM101 102h1v1h-1zM107 102h9v1h-9zM116 102h1v1h-1z"/></g><g fill="#895636"><path d="M53 91h1v1h-1zM53 92h1v1h-1zM60 99h1v1h-1z"/></g><path fill="#855334" d="M54 95h1v1h-1z"/><g fill="#7d4d31"><path d="M107 100h1v1h-1zM100 104h1v1h-1z"/></g><g fill="#895536"><path d="M62 106h1v1h-1zM95 110h1v1h-1zM76 112h1v1h-1zM77 112h1v1h-1zM85 112h1v1h-1zM86 112h1v1h-1zM16 114h1v1h-1zM105 116h1v1h-1zM103 117h1v1h-1zM31 118h1v1h-1zM92 120h1v1h-1z"/></g><path fill="#905a3a" d="M9 108h1v1H9z"/><path fill="#855335" d="M65 108h1v1h-1z"/><g fill="#9b633e"><path d="M38 63h1v1h-1zM55 80h1v1h-1zM9 84h24v1H9zM33 84h1v1h-1zM41 84h76v1H41zM117 84h1v1h-1zM9 85h24v1H9zM33 85h1v1h-1zM39 85h78v1H39zM117 85h1v1h-1z"/></g><g fill="#8d5737"><path d="M35 90h1v1h-1zM34 102h1v1h-1zM109 113h1v1h-1z"/></g><g fill="#a26942"><path d="M15 58h22v1H15zM37 58h1v1h-1zM15 59h22v1H15zM37 59h1v1h-1z"/></g><g fill="#8b5636"><path d="M54 8h1v1h-1zM67 9h1v1h-1zM41 15h1v1h-1zM71 16h1v1h-1zM63 20h1v1h-1zM56 21h1v1h-1zM38 27h1v1h-1zM57 27h1v1h-1zM55 29h1v1h-1zM26 31h1v1h-1zM44 33h1v1h-1zM67 33h1v1h-1zM63 36h1v1h-1zM17 49h1v1h-1zM15 54h1v1h-1zM57 77h1v1h-1zM56 78h1v1h-1zM37 79h1v1h-1zM55 79h1v1h-1zM54 80h1v1h-1zM116 80h1v1h-1zM8 83h1v1H8zM41 83h1v1h-1zM7 92h1v1H7zM34 93h1v1h-1zM31 94h1v1h-1z"/></g><g fill="#965f3c"><path d="M22 39h1v1h-1zM41 40h1v1h-1zM21 41h1v1h-1zM109 73h1v1h-1zM8 88h1v1H8zM31 91h1v1h-1zM119 94h1v1h-1zM8 96h22v1H8zM30 96h1v1h-1zM35 96h18v1H35zM53 96h1v1h-1zM59 96h59v1H59zM118 96h1v1h-1zM8 97h22v1H8zM30 97h1v1h-1zM35 97h19v1H35zM54 97h1v1h-1zM60 97h45v1H60zM105 97h13v1h-13zM118 97h1v1h-1z"/></g><g fill="#7e4e31"><path d="M56 92h1v1h-1zM64 107h1v1h-1zM94 107h1v1h-1zM70 110h1v1h-1z"/></g><path fill="#8e5837" d="M12 63h1v1h-1z"/><g fill="#99623e"><path d="M54 81h1v1h-1zM117 83h1v1h-1zM8 89h23v1H8zM31 89h1v1h-1zM37 89h81v1H37zM118 89h1v1h-1z"/></g><g fill="#8c5737"><path d="M45 82h1v1h-1zM8 84h1v1H8zM34 85h1v1h-1zM57 101h1v1h-1zM118 101h1v1h-1zM34 105h1v1h-1zM67 105h1v1h-1zM8 107h1v1H8zM115 107h1v1h-1z"/></g><g fill="#8f5a39"><path d="M54 96h1v1h-1zM62 101h1v1h-1zM63 102h1v1h-1z"/></g><g fill="#845234"><path d="M107 98h1v1h-1zM102 102h1v1h-1zM79 112h4v1h-4zM83 112h1v1h-1z"/></g><path fill="#a16a41" d="M38 49h1v1h-1z"/><path fill="#9f6840" d="M13 62h1v1h-1z"/><g fill="#925c3a"><path d="M66 8h1v1h-1zM52 9h1v1h-1zM46 12h1v1h-1zM69 13h1v1h-1zM56 18h1v1h-1zM73 20h1v1h-1zM52 21h1v1h-1zM73 25h1v1h-1zM71 27h1v1h-1zM62 31h1v1h-1zM46 34h1v1h-1zM66 34h1v1h-1zM24 35h1v1h-1zM51 35h1v1h-1zM20 43h1v1h-1zM101 68h1v1h-1zM37 78h1v1h-1zM9 79h1v1H9zM115 79h1v1h-1zM47 82h1v1h-1zM31 92h1v1h-1zM57 93h1v1h-1zM7 96h1v1H7zM34 96h1v1h-1zM7 97h1v1H7zM34 97h1v1h-1zM7 101h1v1H7z"/></g><g fill="#9d653f"><path d="M77 66h1v1h-1zM100 68h1v1h-1zM63 73h1v1h-1zM10 78h26v2H10zM36 78h1v1h-1zM58 78h55v2H58zM113 78h1v2h-1zM36 79h1v1h-1z"/><path d="M57 79h57v1H57zM114 79h1v1h-1zM10 80h25v1H10zM35 80h1v1h-1zM56 80h59v1H56zM115 80h1v1h-1z"/></g><g fill="#905a39"><path d="M36 81h1v1h-1zM46 82h1v1h-1zM7 93h1v2H7zM7 95h1v1H7zM61 100h1v1h-1zM7 103h1v1H7zM32 106h1v1h-1zM103 106h1v1h-1zM10 109h55v1H10zM65 109h1v1h-1zM99 109h13v1H99zM112 109h1v1h-1z"/></g><g fill="#905939"><path d="M11 110h56v1H11zM67 110h1v1h-1zM96 110h15v1H96zM111 110h1v1h-1z"/></g><g fill="#875334"><path d="M62 3h2v3h-2zM64 3h1v3h-1z"/><path d="M56 4h11v2H56zM67 4h1v4h-1z"/><path d="M53 5h15v1H53zM68 5h1v5h-1z"/><path d="M50 6h19v1H50zM69 6h1v6h-1zM48 7h8v1h-8zM56 7h1v1h-1zM66 7h3v1h-3zM46 8h7v1h-7zM53 8h1v1h-1z"/><path d="M67 8h3v1h-3zM70 8h1v5h-1zM44 9h6v1h-6zM50 9h1v1h-1zM71 9h1v6h-1zM43 10h5v1h-5zM48 10h1v1h-1z"/><path d="M68 10h3v1h-3zM41 11h5v1h-5zM46 11h1v1h-1zM72 11h1v6h-1zM40 12h5v1h-5zM45 12h1v1h-1zM69 12h3v1h-3zM38 13h5v1h-5zM43 13h1v1h-1z"/><path d="M70 13h3v1h-3zM73 13h1v6h-1zM37 14h5v1h-5zM42 14h1v1h-1zM36 15h4v1h-4zM40 15h1v1h-1z"/><path d="M71 15h3v1h-3zM74 15h1v14h-1zM35 16h4v1h-4zM39 16h1v1h-1zM75 16h1v12h-1zM34 17h4v1h-4zM38 17h1v1h-1z"/><path d="M72 17h3v1h-3zM32 18h4v1h-4zM36 18h1v1h-1zM58 18h2v2h-2zM60 18h1v2h-1zM76 18h1v9h-1zM31 19h4v1h-4zM35 19h1v1h-1z"/><path d="M55 19h8v1h-8zM63 19h1v1h-1zM73 19h3v1h-3zM30 20h4v1h-4zM34 20h1v1h-1zM54 20h8v1h-8zM62 20h1v1h-1zM30 21h3v1h-3zM33 21h1v1h-1zM53 21h2v6h-2zM55 21h1v1h-1zM29 22h3v1h-3zM32 22h1v1h-1zM77 22h1v2h-1zM28 23h3v1h-3zM31 23h1v1h-1z"/><path d="M52 23h2v2h-2zM27 24h3v2h-3zM30 24h1v1h-1zM77 24h1v1h-1z"/><path d="M26 25h3v2h-3zM52 25h2v1h-2z"/><path d="M25 26h4v1h-4zM29 26h1v1h-1zM55 26h1v2h-1zM73 26h3v2h-3zM25 27h3v2h-3zM28 27h1v1h-1zM39 27h1v4h-1z"/><path d="M53 27h3v1h-3zM56 27h1v2h-1zM72 27h4v1h-4zM76 27h1v1h-1zM24 28h3v2h-3zM38 28h2v1h-2zM40 28h1v4h-1z"/><path d="M54 28h5v1h-5zM59 28h1v2h-1zM69 28h6v1h-6zM75 28h1v1h-1zM27 29h1v1h-1z"/><path d="M56 29h18v1H56zM74 29h1v1h-1zM23 30h3v2h-3zM26 30h1v1h-1zM58 30h15v1H58zM73 30h1v1h-1z"/><path d="M22 31h3v3h-3zM39 31h2v1h-2zM41 31h1v2h-1zM67 31h3v1h-3zM70 31h1v3h-1zM25 32h1v1h-1z"/><path d="M40 32h2v1h-2zM42 32h1v2h-1zM68 32h2v4h-2zM21 33h3v2h-3z"/><path d="M41 33h2v1h-2zM43 33h1v1h-1zM24 34h1v1h-1zM42 34h3v1h-3zM45 34h1v6h-1zM67 34h3v2h-3zM70 34h1v1h-1zM20 35h3v2h-3zM23 35h1v1h-1z"/><path d="M44 35h5v3h-5zM49 35h1v3h-1zM66 35h3v2h-3zM50 36h5v2h-5zM55 36h1v3h-1z"/><path d="M64 36h5v1h-5zM69 36h1v1h-1zM19 37h3v2h-3zM22 37h1v1h-1zM56 37h12v1H56zM68 37h1v1h-1zM43 38h24v1H43zM67 38h1v1h-1zM18 39h3v2h-3zM21 39h1v1h-1zM43 39h3v1h-3zM46 39h1v1h-1zM54 39h10v1H54zM64 39h1v1h-1zM42 40h3v2h-3zM45 40h1v1h-1zM17 41h3v3h-3zM20 41h1v1h-1zM41 42h3v3h-3zM44 42h1v1h-1z"/><path d="M16 43h3v3h-3zM19 44h1v1h-1zM40 44h3v6h-3z"/><path d="M15 45h3v3h-3zM43 45h1v1h-1zM18 46h1v1h-1zM14 48h3v3h-3zM17 48h1v1h-1zM39 48h3v29h-3z"/><path d="M13 50h3v3h-3zM42 50h1v1h-1zM16 51h1v1h-1zM12 53h3v3h-3zM15 53h1v1h-1z"/><path d="M11 55h3v4h-3zM14 56h1v1h-1z"/><path d="M10 58h3v4h-3zM13 59h1v1h-1z"/><path d="M9 61h3v5H9zM83 61h3v3h-3zM86 61h1v3h-1zM12 62h1v1h-1z"/><path d="M76 62h18v2H76zM94 62h1v3h-1z"/><path d="M73 63h25v1H73zM98 63h1v3h-1zM42 64h1v7h-1z"/><path d="M71 64h30v1H71zM101 64h1v3h-1zM8 65h3v5H8zM68 65h9v1h-9zM77 65h1v1h-1z"/><path d="M93 65h10v1H93zM103 65h1v3h-1zM11 66h1v1h-1zM66 66h8v1h-8zM74 66h1v1h-1z"/><path d="M97 66h8v1h-8zM105 66h1v3h-1zM65 67h6v1h-6zM71 67h1v1h-1z"/><path d="M100 67h7v1h-7zM107 67h1v3h-1zM63 68h6v1h-6zM69 68h1v1h-1z"/><path d="M103 68h5v1h-5zM108 68h1v3h-1zM7 69h3v7H7zM62 69h5v1h-5zM67 69h1v1h-1z"/><path d="M105 69h5v1h-5zM110 69h1v3h-1zM10 70h1v1h-1zM60 70h5v1h-5zM65 70h1v1h-1z"/><path d="M106 70h5v1h-5zM111 70h1v3h-1zM42 71h1v1h-1zM59 71h5v1h-5zM64 71h1v1h-1z"/><path d="M108 71h4v1h-4zM112 71h1v3h-1zM58 72h4v1h-4zM62 72h1v1h-1z"/><path d="M109 72h4v1h-4zM113 72h1v3h-1zM57 73h4v1h-4zM61 73h1v1h-1z"/><path d="M111 73h3v1h-3zM114 73h1v3h-1zM55 74h5v1h-5zM60 74h1v1h-1z"/><path d="M112 74h3v1h-3zM115 74h1v4h-1zM6 75h3v7H6zM54 75h4v1h-4zM58 75h1v1h-1z"/><path d="M113 75h3v1h-3zM116 75h1v4h-1zM9 76h1v1H9zM38 76h3v7h-3zM53 76h4v1h-4zM57 76h1v1h-1z"/><path d="M114 76h3v1h-3zM117 76h1v5h-1zM41 77h1v1h-1zM52 77h4v1h-4zM56 77h1v1h-1zM118 77h1v6h-1zM52 78h3v1h-3zM55 78h1v1h-1z"/><path d="M115 78h4v1h-4zM119 78h1v7h-1zM43 79h11v1H43zM54 79h1v1h-1zM116 79h3v1h-3zM37 80h16v1H37zM53 80h1v1h-1zM120 80h1v25h-1zM5 81h3v9H5zM37 81h15v1H37zM52 81h1v1h-1z"/><path d="M117 81h3v1h-3zM8 82h1v1H8zM37 82h7v1h-7zM44 82h1v1h-1zM121 82h1v21h-1zM36 83h4v1h-4zM40 83h1v1h-1zM118 83h3v1h-3zM35 84h2v2h-2zM37 84h1v1h-1zM37 85h1v1h-1z"/><path d="M119 85h3v1h-3zM122 85h1v15h-1zM34 86h2v3h-2zM36 86h1v1h-1zM4 88h3v19H4z"/><path d="M33 88h2v4h-2zM35 89h1v1h-1zM123 89h1v5h-1zM7 90h1v1H7z"/><path d="M32 91h2v14h-2zM34 92h1v1h-1zM123 94h1v1h-1z"/><path d="M31 96h2v4h-2zM3 99h3v2H3zM119 99h3v4h-3zM31 100h2v1h-2zM122 100h1v1h-1zM3 101h3v1H3zM118 103h3v2h-3zM121 103h1v1h-1zM34 104h1v1h-1zM32 105h1v1h-1zM33 105h1v1h-1zM117 105h3v2h-3zM120 105h1v1h-1zM7 106h1v6H7zM4 107h3v1H4zM116 107h3v2h-3zM119 107h1v1h-1zM5 108h2v1H5z"/><path d="M115 108h3v2h-3zM5 109h3v1H5zM8 109h1v4H8zM118 109h1v1h-1z"/><path d="M6 110h3v1H6zM9 110h1v4H9zM114 110h3v2h-3zM117 110h1v1h-1z"/><path d="M6 111h4v1H6zM10 111h1v3h-1zM113 111h3v2h-3z"/><path d="M7 112h4v1H7zM11 112h1v3h-1zM112 112h4v1h-4zM116 112h1v1h-1z"/><path d="M8 113h5v1H8zM13 113h1v3h-1zM111 113h4v1h-4zM115 113h1v1h-1z"/><path d="M9 114h6v1H9zM15 114h1v3h-1zM109 114h5v1h-5zM114 114h1v1h-1z"/><path d="M11 115h6v1h-6zM17 115h1v3h-1zM108 115h5v1h-5zM113 115h1v1h-1z"/><path d="M12 116h8v1h-8zM20 116h1v3h-1zM106 116h5v1h-5zM111 116h1v1h-1z"/><path d="M14 117h10v1H14zM24 117h1v3h-1zM104 117h6v1h-6zM110 117h1v1h-1z"/><path d="M16 118h13v1H16zM29 118h1v3h-1zM102 118h7v1h-7zM109 118h1v1h-1z"/><path d="M19 119h17v1H19zM36 119h1v3h-1zM99 119h8v1h-8zM107 119h1v1h-1z"/><path d="M23 120h23v1H23zM46 120h1v3h-1zM94 120h11v1H94zM105 120h1v1h-1z"/><path d="M28 121h74v1H28zM102 121h1v1h-1zM34 122h65v1H34zM99 122h1v1h-1zM43 123h52v1H43zM95 123h1v1h-1z"/></g><g fill="#9f6740"><path d="M56 8h1v1h-1zM53 9h1v1h-1zM68 12h1v1h-1zM45 13h1v1h-1zM42 15h1v1h-1zM37 19h1v1h-1zM53 19h1v1h-1zM63 21h1v1h-1zM51 23h1v1h-1zM31 25h1v1h-1zM72 26h1v1h-1zM59 27h1v1h-1zM70 27h1v1h-1zM28 29h1v1h-1zM42 30h1v1h-1zM66 32h1v1h-1zM64 35h1v1h-1zM15 56h1v1h-1zM38 64h1v1h-1zM12 70h26v2H12zM38 70h1v1h-1zM68 70h35v2H68zM103 70h1v2h-1z"/><path d="M11 71h26v1H11zM67 71h38v1H67zM105 71h1v1h-1zM11 72h26v1H11zM37 72h1v1h-1zM65 72h42v1H65zM107 72h1v1h-1z"/></g><g fill="#905b39"><path d="M40 16h1v1h-1zM62 18h1v1h-1zM55 22h1v1h-1zM40 27h1v1h-1zM67 28h1v1h-1zM57 30h1v1h-1zM65 35h1v1h-1zM58 36h1v1h-1zM40 43h1v1h-1zM105 70h1v1h-1zM36 88h1v1h-1zM32 89h1v1h-1zM7 102h1v1H7z"/></g><g fill="#a16841"><path d="M13 64h24v1H13zM37 64h1v1h-1zM13 65h25v1H13zM38 65h1v1h-1zM84 65h1v1h-1zM85 65h1v1h-1z"/></g><g fill="#9e6740"><path d="M74 67h1v1h-1zM97 67h1v1h-1z"/></g><path fill="#9c653f" d="M38 71h1v1h-1z"/><path fill="#7f4f31" d="M105 98h1v1h-1z"/><path fill="#8e5939" d="M105 104h1v1h-1z"/><g fill="#9c643e"><path d="M60 7h1v1h-1zM64 7h1v1h-1zM67 10h1v1h-1zM71 17h1v1h-1zM38 18h1v1h-1zM55 18h1v1h-1zM63 18h1v1h-1zM60 21h1v1h-1zM73 21h1v1h-1zM54 29h1v1h-1zM47 34h1v1h-1zM57 78h1v1h-1zM56 79h1v1h-1z"/></g><g fill="#a36a42"><path d="M66 9h1v1h-1zM51 10h1v1h-1zM49 11h1v1h-1zM47 12h1v1h-1zM69 14h1v1h-1zM41 16h1v1h-1zM52 20h1v1h-1zM35 21h1v1h-1zM34 22h1v1h-1zM73 22h1v1h-1zM33 23h1v1h-1zM73 23h1v1h-1zM51 25h1v1h-1zM41 28h1v1h-1zM43 31h1v1h-1zM44 32h1v1h-1zM40 34h1v1h-1zM48 34h1v1h-1zM24 36h1v1h-1zM43 36h1v1h-1zM18 50h19v4H18zM37 50h1v4h-1z"/><path d="M17 52h20v2H17zM16 54h21v1H16zM37 54h1v1h-1z"/></g><g fill="#935c3b"><path d="M117 102h1v1h-1zM8 103h22v1H8zM30 103h1v1h-1zM35 103h23v1H35zM58 103h1v1h-1zM65 103h34v1H65zM99 103h1v1h-1zM107 103h9v1h-9zM116 103h1v1h-1zM8 104h22v1H8zM30 104h1v1h-1zM35 104h24v1H35zM59 104h1v1h-1zM66 104h32v1H66zM98 104h1v1h-1zM106 104h10v1h-10zM116 104h1v1h-1z"/></g><g fill="#8a5636"><path d="M78 65h1v1h-1zM66 70h1v1h-1zM10 71h1v1h-1zM63 72h1v1h-1zM32 90h1v1h-1zM55 90h1v1h-1zM31 101h1v1h-1zM31 102h1v1h-1zM7 105h1v1H7z"/></g><g fill="#895435"><path d="M102 68h1v1h-1zM104 69h1v1h-1zM117 104h1v1h-1zM113 110h1v1h-1zM112 111h1v1h-1zM12 112h1v1h-1zM111 112h1v1h-1zM107 115h1v1h-1zM25 117h1v1h-1zM30 118h1v1h-1zM37 119h1v1h-1zM38 119h1v1h-1zM47 120h3v1h-3zM50 120h1v1h-1zM93 120h1v1h-1z"/></g><g fill="#a36b42"><path d="M19 48h19v1H19zM38 48h1v1h-1zM18 49h19v1H18zM37 49h1v1h-1z"/></g><g fill="#9f6640"><path d="M11 73h26v1H11zM37 73h1v1h-1zM64 73h44v1H64zM108 73h1v1h-1z"/></g><g fill="#9d6540"><path d="M10 77h26v1H10zM36 77h1v1h-1zM59 77h53v1H59zM112 77h1v1h-1z"/></g><g fill="#97603d"><path d="M32 88h1v1h-1zM8 94h22v1H8zM30 94h1v1h-1zM35 94h18v1H35zM53 94h1v1h-1zM58 94h60v1H58zM118 94h1v1h-1zM8 95h22v1H8zM30 95h1v1h-1zM35 95h18v1H35zM53 95h1v1h-1zM59 95h59v1H59zM118 95h1v1h-1z"/></g><g fill="#a46c43"><path d="M24 37h18v1H24zM42 37h1v1h-1z"/></g><g fill="#a46b43"><path d="M24 38h17v2H24zM41 38h1v1h-1z"/><path d="M23 39h17v4H23zM40 40h1v1h-1z"/><path d="M22 41h17v2H22zM21 43h18v1H21zM39 43h1v1h-1z"/></g><path fill="#885334" d="M8 108h1v1H8z"/><path fill="#7f4f32" d="M89 111h1v1h-1z"/><g fill="#99623d"><path d="M40 42h1v1h-1zM106 71h1v1h-1zM38 72h1v1h-1zM64 72h1v1h-1zM113 77h1v1h-1z"/></g><path fill="#a06840" d="M20 44h1v1h-1z"/><g fill="#9a633e"><path d="M82 65h1v1h-1zM83 65h1v1h-1zM86 65h2v1h-2zM88 65h1v1h-1zM94 66h1v1h-1zM9 86h23v1H9zM32 86h1v1h-1zM38 86h80v1H38zM118 86h1v1h-1z"/></g><g fill="#915a39"><path d="M34 100h1v1h-1zM118 100h1v1h-1zM31 105h1v1h-1z"/></g><g fill="#825033"><path d="M101 103h1v1h-1zM94 110h1v1h-1zM90 111h1v1h-1z"/></g><g fill="#9a633d"><path d="M30 26h1v1h-1zM53 28h1v1h-1zM56 30h1v1h-1z"/></g><g fill="#a06841"><path d="M14 59h1v1h-1zM12 66h26v2H12zM38 66h1v2h-1zM78 66h15v2H78zM93 66h1v2h-1z"/><path d="M75 67h21v1H75zM96 67h1v1h-1zM12 68h26v1H12zM38 68h1v1h-1zM72 68h27v1H72zM99 68h1v1h-1z"/></g><path fill="#9a623d" d="M69 69h1v1h-1z"/><path fill="#885434" d="M118 102h1v1h-1z"/><g fill="#855234"><path d="M67 109h1v1h-1zM97 109h1v1h-1z"/></g><path fill="#9f673f" d="M19 46h1v1h-1z"/><g fill="#98613d"><path d="M14 58h1v1h-1zM11 69h1v1h-1zM60 75h1v1h-1zM37 77h1v1h-1zM9 81h1v1H9zM116 81h1v1h-1zM43 83h1v1h-1zM36 89h1v3h-1zM8 91h22v1H8zM30 91h1v1h-1zM37 91h15v1H37zM52 91h1v1h-1zM57 91h62v1H57zM119 91h1v1h-1zM8 92h22v1H8zM30 92h1v1h-1zM36 92h16v1H36zM52 92h1v1h-1zM57 92h62v1H57zM119 92h1v1h-1z"/></g><g fill="#945e3b"><path d="M55 8h1v1h-1zM55 25h1v1h-1zM29 27h1v1h-1zM38 30h1v1h-1zM39 32h1v1h-1zM61 36h1v1h-1zM43 37h1v1h-1zM38 60h1v1h-1zM80 65h1v1h-1zM90 65h1v1h-1zM95 66h1v1h-1zM38 73h1v1h-1zM61 74h1v1h-1z"/></g><g fill="#8c5637"><path d="M23 116h1v1h-1zM28 117h1v1h-1zM102 117h1v1h-1zM34 118h1v1h-1zM42 119h1v1h-1zM43 119h1v1h-1zM56 120h7v1h-7zM63 120h1v1h-1zM85 120h4v1h-4zM89 120h1v1h-1z"/></g><g fill="#8f5938"><path d="M58 7h1v1h-1zM65 7h1v1h-1zM68 11h1v1h-1zM57 18h1v1h-1zM61 18h1v1h-1zM72 18h1v1h-1zM61 28h1v1h-1zM62 28h1v1h-1zM68 28h1v1h-1zM63 31h2v1h-2zM65 31h1v1h-1zM25 33h1v1h-1zM41 34h1v1h-1zM57 36h1v1h-1zM62 36h1v1h-1zM10 72h1v1h-1zM117 82h1v1h-1zM39 84h1v1h-1zM118 84h1v1h-1zM34 95h1v1h-1zM117 103h1v1h-1zM66 109h1v1h-1z"/></g><g fill="#a16941"><path d="M62 7h1v1h-1zM36 20h1v1h-1zM55 23h1v1h-1zM32 24h1v1h-1zM55 24h1v1h-1zM38 26h1v1h-1zM38 31h1v1h-1zM25 34h1v1h-1zM54 35h1v1h-1zM17 51h1v1h-1zM14 61h23v2H14zM37 61h1v2h-1zM13 63h24v1H13zM37 63h1v1h-1z"/></g><g fill="#8c5738"><path d="M87 108h1v1h-1zM71 111h1v1h-1zM17 114h1v1h-1zM106 115h1v1h-1zM104 116h1v1h-1zM99 118h1v1h-1zM95 119h1v1h-1z"/></g><g fill="#8d5738"><path d="M13 112h1v1h-1zM87 112h1v7h-1z"/><path d="M18 114h89v1H18zM107 114h1v1h-1zM20 115h85v1H20zM105 115h1v1h-1zM24 116h79v1H24zM103 116h1v1h-1zM29 117h72v1H29zM101 117h1v1h-1zM35 118h63v1H35zM98 118h1v1h-1zM44 119h50v1H44zM94 119h1v1h-1zM64 120h20v1H64zM84 120h1v1h-1z"/></g><g fill="#8b5736"><path d="M58 76h1v1h-1zM7 91h1v1H7z"/></g><g fill="#8b5737"><path d="M104 99h1v1h-1zM64 103h1v1h-1z"/></g><g fill="#945d3c"><path d="M7 99h1v1H7zM118 99h1v1h-1z"/></g><g fill="#8d5837"><path d="M44 13h1v1h-1zM54 19h1v1h-1zM35 20h1v1h-1zM34 21h1v1h-1zM33 22h1v1h-1zM32 23h1v1h-1zM52 26h1v1h-1zM28 28h1v1h-1zM38 29h1v1h-1zM42 31h1v1h-1zM43 32h1v1h-1zM40 33h1v1h-1zM50 35h1v1h-1zM56 36h1v1h-1zM96 66h1v1h-1zM11 67h1v1h-1zM99 67h1v1h-1zM70 68h1v1h-1zM68 69h1v1h-1zM38 75h1v1h-1zM9 77h1v1H9zM33 87h1v1h-1zM7 104h1v1H7z"/></g><g fill="#8f5a38"><path d="M14 57h1v1h-1zM13 60h1v1h-1zM79 65h1v1h-1zM75 66h1v1h-1zM9 78h1v1H9zM37 86h1v1h-1z"/></g><path fill="#875535" d="M56 91h1v1h-1z"/><g fill="#835133"><path d="M59 98h1v1h-1zM60 104h1v1h-1zM61 105h1v1h-1zM98 105h1v1h-1zM68 106h1v1h-1zM96 106h1v1h-1z"/></g><path fill="#835134" d="M59 103h1v1h-1z"/><g fill="#875335"><path d="M74 108h1v1h-1zM78 112h1v1h-1z"/></g><g fill="#925c39"><path d="M19 45h1v1h-1zM16 52h1v1h-1zM65 71h1v1h-1zM108 72h1v1h-1z"/></g><g fill="#99613d"><path d="M81 65h1v1h-1zM36 80h1v1h-1zM34 84h1v1h-1zM37 87h1v1h-1zM8 90h23v1H8zM31 90h1v1h-1zM37 90h15v1H37zM52 90h1v1h-1zM57 90h61v1H57zM118 90h1v1h-1z"/></g><g fill="#9e6640"><path d="M102 69h1v1h-1zM11 74h26v2H11zM37 74h1v2h-1zM62 74h47v2H62zM109 74h1v2h-1z"/><path d="M61 75h49v1H61zM110 75h1v1h-1zM10 76h27v1H10zM37 76h1v1h-1zM60 76h51v1H60zM111 76h1v1h-1z"/></g><g fill="#885435"><path d="M110 73h1v1h-1zM111 74h1v1h-1zM59 75h1v1h-1zM113 76h1v1h-1zM114 77h1v1h-1zM53 81h1v1h-1zM36 82h1v1h-1zM38 84h1v1h-1zM119 86h1v1h-1zM36 87h1v1h-1zM116 106h1v1h-1zM114 109h1v1h-1zM110 113h1v1h-1zM18 115h1v1h-1zM21 116h1v1h-1zM101 118h1v1h-1zM98 119h1v1h-1z"/></g><path fill="#805032" d="M106 102h1v1h-1z"/><path fill="#7f4e31" d="M66 105h1v1h-1z"/><g fill="#a46b42"><path d="M21 44h17v3H21zM38 44h1v3h-1z"/><path d="M20 45h18v2H20zM19 47h19v1H19zM38 47h1v1h-1z"/></g><g fill="#97613c"><path d="M13 61h1v1h-1zM38 61h1v1h-1z"/></g></svg>